# xmcd
#
# Track frame offsets:
#	150
#	17142
#	31910
#	44905
#	61572
#	75097
#	93427
#	106217
#	121470
#	132812
#	145615
#	160860
#	175752
#	192180
#	206582
#	224340
#	237902
#	253247
#	270572
#	285182
#
# Disc length: 4012 seconds
# Revision: 0
# Processed by: cddbd v1.5.2PL0 Copyright (c) Steve Scherf et al.
# Submitted via: dBpowerAMP V12.0
#
DISCID=0d0faa14
DTITLE=Olivia Newton-John - Country Girl [European Edition]
DYEAR=1998
DGENRE=Country
TTITLE0=Love Song
TTITLE1=Banks Of The Ohio
TTITLE2=If Not For You
TTITLE3=If You Could Read My Mind
TTITLE4=Lullaby
TTITLE5=It's So Hard To Say Goodbye
TTITLE6=Winterwood
TTITLE7=What Is Life
TTITLE8=Changes
TTITLE9=Living In Harmony
TTITLE10=If We Only Have Love
TTITLE11=Take Me Home, Country Roads
TTITLE12=I Honestly Love You
TTITLE13=Music Makes My Day
TTITLE14=Rosewater
TTITLE15=Let Me Be There
TTITLE16=Please Mr. Please
TTITLE17=The Air That I Breathe
TTITLE18=If You Love Me (Let Me Know)
TTITLE19=Have You Never Been Mellow
EXTD=
EXTT0=
EXTT1=
EXTT2=
EXTT3=
EXTT4=
EXTT5=
EXTT6=
EXTT7=
EXTT8=
EXTT9=
EXTT10=
EXTT11=
EXTT12=
EXTT13=
EXTT14=
EXTT15=
EXTT16=
EXTT17=
EXTT18=
EXTT19=
PLAYORDER=
